<svg height="512" viewBox="0 0 512 512" width="512" xmlns="http://www.w3.org/2000/svg"><g id="flat"><path d="m152 24h208v80h-208z" fill="#e4e4e2"/><circle cx="216" cy="64" fill="#fbb540" r="16"/><circle cx="296" cy="64" fill="#dc4d41" r="16"/><circle cx="256" cy="184" fill="#007af6" r="32"/><path d="m301 216h-90a27 27 0 0 0 -27 27v93a16 16 0 0 0 32 0v8l-8 144h32l16-136 16 136h32l-8-144v-8a16 16 0 0 0 32 0v-93a27 27 0 0 0 -27-27z" fill="#007af6"/><path d="m138 24h14a0 0 0 0 1 0 0v464a0 0 0 0 1 0 0h-32a0 0 0 0 1 0 0v-446a18 18 0 0 1 18-18z" fill="#b9b9b9"/><path d="m360 24h32a0 0 0 0 1 0 0v464a0 0 0 0 1 0 0h-14a18 18 0 0 1 -18-18v-446a0 0 0 0 1 0 0z" fill="#b9b9b9" transform="matrix(-1 0 0 -1 752 512)"/><path d="m424 416-32 8v-64l32 8z" fill="#fbb540"/><path d="m424 376h8a16 16 0 0 1 16 16 16 16 0 0 1 -16 16h-8z" fill="#f55648"/><g fill="#fd9226"><path d="m488 400h-16a8 8 0 0 1 0-16h16a8 8 0 0 1 0 16z"/><path d="m472 376a8 8 0 0 1 -5.657-13.657l16-16a8 8 0 0 1 11.314 11.314l-16 16a7.976 7.976 0 0 1 -5.657 2.343z"/><path d="m488 440a7.976 7.976 0 0 1 -5.657-2.343l-16-16a8 8 0 0 1 11.314-11.314l16 16a8 8 0 0 1 -5.657 13.657z"/></g><path d="m88 200 32 8v-64l-32 8z" fill="#fbb540"/><path d="m88 160h-8a16 16 0 0 0 -16 16 16 16 0 0 0 16 16h8z" fill="#f55648"/><path d="m40 184h-16a8 8 0 0 1 0-16h16a8 8 0 0 1 0 16z" fill="#fd9226"/><path d="m40 160a7.976 7.976 0 0 1 -5.657-2.343l-16-16a8 8 0 0 1 11.314-11.314l16 16a8 8 0 0 1 -5.657 13.657z" fill="#fd9226"/><path d="m24 224a8 8 0 0 1 -5.657-13.657l16-16a8 8 0 0 1 11.314 11.314l-16 16a7.976 7.976 0 0 1 -5.657 2.343z" fill="#fd9226"/><path d="m216 248h8v96h-8z" fill="#0a71cd"/><path d="m288 248h8v96h-8z" fill="#0a71cd"/><path d="m152 88h208v16h-208z" fill="#cdcdcd"/></g></svg>