<svg id="Capa_1" enable-background="new 0 0 512 512" height="512" viewBox="0 0 512 512" width="512" xmlns="http://www.w3.org/2000/svg"><g><path d="m0 256c0-141.294 114.467-255.852 255.726-256 139.622-.146 254.236 112.62 256.247 252.227 1.19 82.617-36.763 156.418-96.503 204.049-2.326 1.855-5.608 1.945-8.005.183-42.415-31.177-94.789-49.595-151.465-49.595-56.756 0-109.198 18.47-151.644 49.727-2.29 1.686-5.425 1.595-7.65-.176-58.93-46.901-96.706-119.246-96.706-200.415z" fill="#20b7a1"/><path d="m459.004 219.028c0 112.116-90.888 203.004-203.004 203.004s-203.004-90.888-203.004-203.004c0-112.117 90.888-203.004 203.004-203.004s203.004 90.887 203.004 203.004z" fill="#24d3b5"/><path d="m195.713 90.36c-1.02 3.107-2.362 6.068-3.987 8.844 12.792 8.17 21.274 22.492 21.274 38.796 0 25.405-20.595 46-46 46s-46-20.595-46-46c0-8.463 2.286-16.392 6.274-23.204-12.792-8.17-21.274-22.492-21.274-38.796 0-21.176 14.31-39.01 33.787-44.36 6.032-18.373 23.323-31.64 43.713-31.64 25.405 0 46 20.595 46 46 0 21.176-14.31 39.01-33.787 44.36z" fill="#2b3894"/><path d="m410 131c0 16.016-12.984 29-29 29s-29-12.984-29-29c0-6.427 2.091-12.366 5.63-17.174-12.595-2.902-23.212-10.975-29.497-21.864-24.539-.98-44.133-21.182-44.133-45.962 0-25.405 20.595-46 46-46 17.042 0 31.919 9.268 39.867 23.038 24.54.98 44.133 21.182 44.133 45.962 0 15.095-7.271 28.492-18.501 36.879 8.669 5.014 14.501 14.386 14.501 25.121z" fill="#3342ae"/><path d="m71.338 360.191c0 5.881-4.768 10.649-10.649 10.649s-10.649-4.768-10.649-10.649c0-5.882 4.768-10.649 10.649-10.649s10.649 4.768 10.649 10.649zm-.649-251.649c-5.881 0-10.649 4.768-10.649 10.649s4.768 10.649 10.649 10.649 10.649-4.768 10.649-10.649-4.768-10.649-10.649-10.649zm379 251c-5.882 0-10.649 4.768-10.649 10.649s4.768 10.649 10.649 10.649 10.649-4.768 10.649-10.649-4.768-10.649-10.649-10.649z" fill="#199a8e"/><path d="m476.028 144.862 2.257-3.294c3.549-5.18 11.664-2.544 11.49 3.733l-.11 3.991c-.058 2.103 2.013 3.608 3.995 2.903l14.329-5.098c2.812-1 5.195 2.28 3.375 4.645l-9.277 12.053c-1.283 1.667-.492 4.102 1.526 4.696l3.83 1.128c6.024 1.775 6.024 10.307 0 12.081l-3.83 1.128c-2.018.594-2.809 3.03-1.526 4.696l9.277 12.053c1.82 2.365-.563 5.646-3.375 4.645l-14.329-5.098c-1.982-.705-4.053.8-3.995 2.903l.11 3.991c.174 6.277-7.941 8.914-11.49 3.733l-2.257-3.294c-1.189-1.735-3.749-1.735-4.938 0l-8.596 12.547c-1.687 2.462-5.543 1.209-5.461-1.774l.421-15.203c.058-2.103-2.013-3.608-3.995-2.903l-3.762 1.338c-5.916 2.105-10.931-4.798-7.101-9.774l2.435-3.164c1.283-1.667.492-4.102-1.526-4.696l-14.589-4.298c-2.863-.843-2.863-4.899 0-5.742l14.589-4.298c2.018-.594 2.809-3.03 1.526-4.696l-2.435-3.164c-3.83-4.976 1.185-11.879 7.101-9.774l3.762 1.338c1.982.705 4.053-.8 3.995-2.903l-.421-15.203c-.083-2.983 3.774-4.236 5.461-1.774l8.596 12.547c1.189 1.736 3.749 1.736 4.938.001z" fill="#f76c57"/><path d="m59.146 301.089c-4.311-.22-7.867 3.335-7.647 7.646.35 6.846-8.089 10.341-12.682 5.253-2.893-3.204-7.921-3.204-10.814 0-4.593 5.088-13.032 1.592-12.682-5.253.22-4.311-3.336-7.867-7.647-7.646-6.846.35-10.341-8.089-5.253-12.682 3.204-2.893 3.204-7.921 0-10.814-5.088-4.593-1.593-13.032 5.253-12.682 4.311.22 7.867-3.335 7.647-7.646-.35-6.846 8.089-10.341 12.682-5.253 2.893 3.204 7.921 3.204 10.814 0 4.594-5.088 13.032-1.593 12.682 5.253-.22 4.311 3.336 7.867 7.647 7.646 6.846-.35 10.341 8.089 5.253 12.682-3.204 2.893-3.204 7.921 0 10.814 5.088 4.593 1.593 13.032-5.253 12.682z" fill="#d63030"/><path d="m50.41 283c0 9.389-7.611 17-17 17s-17-7.611-17-17 7.611-17 17-17 17 7.611 17 17z" fill="#f76c57"/><path d="m134.821 259.85c0 8.202-6.649 14.85-14.85 14.85s-14.85-6.648-14.85-14.85c0-8.201 6.648-14.85 14.85-14.85 8.201 0 14.85 6.648 14.85 14.85zm-111.965 16.705c0-3.039.797-5.892 2.194-8.36-5.158 2.919-8.64 8.456-8.64 14.806 0 9.389 7.611 17 17 17 6.35 0 11.887-3.481 14.806-8.64-2.469 1.397-5.321 2.194-8.36 2.194-9.389 0-17-7.612-17-17zm394.144-36.555c-9.389 0-17 7.611-17 17s7.611 17 17 17 17-7.611 17-17-7.611-17-17-17zm52.689 59.542c-5.882 0-10.649 4.768-10.649 10.649s4.768 10.649 10.649 10.649 10.649-4.768 10.649-10.649-4.768-10.649-10.649-10.649zm4.301-142.921c-10.515 0-19.039 8.524-19.039 19.039s8.524 19.039 19.039 19.039 19.039-8.524 19.039-19.039c0-10.514-8.524-19.039-19.039-19.039z" fill="#e5554e"/><path d="m60.338 159.191c0 5.881-4.768 10.649-10.649 10.649s-10.649-4.768-10.649-10.649 4.768-10.649 10.649-10.649 10.649 4.768 10.649 10.649zm420.871 28.29c-10.515 0-19.039-8.524-19.039-19.039 0-3.403.893-6.598 2.458-9.363-5.777 3.269-9.676 9.47-9.676 16.582 0 10.515 8.524 19.039 19.039 19.039 7.112 0 13.312-3.899 16.582-9.676-2.766 1.564-5.961 2.457-9.364 2.457zm-49.403 77.879c-2.919 5.159-8.456 8.64-14.806 8.64-9.389 0-17-7.611-17-17 0-6.35 3.482-11.887 8.64-14.806-1.397 2.469-2.194 5.321-2.194 8.36 0 9.389 7.611 17 17 17 3.038.001 5.891-.797 8.36-2.194z" fill="#d63030"/><path d="m204.045 299.25c-35.872 3.022-64.045 33.096-64.045 69.75v100.242c0 6.883-7.481 11.168-13.416 7.684-10.718-6.292-20.937-13.341-30.584-21.075v-86.601c0-38.66 31.34-70 70-70z" fill="#69564e"/><path d="m416 369.25v86.602c-43.827 35.133-99.459 56.148-160 56.148-47.457 0-91.897-12.913-130-35.417v-107.333c0-38.66 31.34-70 70-70h150c38.66 0 70 31.34 70 70z" fill="#7c665d"/><path d="m256 357.56c-24.877 0-45.044-20.167-45.044-45.044v-13.266h90.088v13.266c0 24.877-20.167 45.044-45.044 45.044zm116.021 126.7v-97.618c0-4.142-3.358-7.5-7.5-7.5-4.142 0-7.5 3.358-7.5 7.5v104.653c5.088-2.187 10.09-4.534 15-7.035zm-217.042 7.035v-104.653c0-4.142-3.358-7.5-7.5-7.5-4.142 0-7.5 3.358-7.5 7.5v97.618c4.91 2.501 9.912 4.848 15 7.035z" fill="#69564e"/><path d="m171 174.25v10c0 13.807-11.193 25-25 25s-25-11.193-25-25v-10c0-13.807 11.193-25 25-25s25 11.193 25 25z" fill="#faa68e"/><path d="m136 169.25v20c0 8.178 3.927 15.439 9.998 20-13.806-.001-24.998-11.194-24.998-25v-10c0-13.807 11.192-24.999 24.998-25-6.071 4.561-9.998 11.822-9.998 20zm230-20v-20c0-60.751-49.249-110-110-110-60.751 0-110 49.249-110 110v40c0 50.351 33.83 92.8 80 105.859v34.141c0 16.568 13.431 30 30 30s30-13.432 30-30v-34.141c33.586-9.499 60.641-34.551 72.895-66.883 2.252.667 4.637 1.024 7.105 1.024 13.807 0 25-11.193 25-25v-10c0-13.807-11.193-25-25-25z" fill="#e09380"/><path d="m366 129.25v40c0 50.792-34.425 93.543-81.216 106.195-9.023 2.439-18.545 2.439-27.568 0-46.791-12.652-81.216-55.403-81.216-106.195v-40c0-55.664 41.345-101.669 95-108.985 53.655 7.316 95 53.321 95 108.985z" fill="#faa68e"/><path d="m371 150h-69.181c8.834 10.178 14.181 23.465 14.181 38v34c0 1.142-.033 2.277-.098 3.403l49.761-18.963c2.58-.983 5.469.311 6.453 2.892s-.312 5.469-2.892 6.453l-55.127 21.008c-6.54 24.867-29.177 43.207-56.097 43.207h-4c-32.032 0-58-25.968-58-58v-34c0-32.033 25.968-58 58-58h4c12.073 0 23.283 3.688 32.567 10h80.433c2.761 0 5 2.239 5 5s-2.238 5-5 5z" fill="#e9f3fe"/><path d="m225 205c0 25.384 4.005 49.722 11.345 72.264-19.323-6.168-34.244-22.188-38.857-42.155l-50.712-19.326c-2.58-.983-3.875-3.872-2.892-6.453s3.872-3.875 6.453-2.892l45.692 17.413c-.019-.614-.029-1.231-.029-1.851v-34c0-14.536 5.347-27.822 14.182-38h-65.182c-2.761 0-5-2.239-5-5 0-2.762 2.239-5 5-5h76.433c4.55-3.093 9.562-5.557 14.912-7.264-7.34 22.542-11.345 46.88-11.345 72.264z" fill="#c8e2fd"/><path d="m300 175c0 2.761-2.239 5-5 5h-78c-2.761 0-5-2.239-5-5 0-2.762 2.239-5 5-5h78c2.762 0 5 2.238 5 5zm-5 15h-78c-2.761 0-5 2.238-5 5 0 2.761 2.239 5 5 5h78c2.761 0 5-2.239 5-5 0-2.762-2.238-5-5-5zm0 20h-78c-2.761 0-5 2.238-5 5 0 2.761 2.239 5 5 5h78c2.761 0 5-2.239 5-5 0-2.762-2.238-5-5-5zm-8 20h-62c-2.761 0-5 2.238-5 5 0 2.761 2.239 5 5 5h62c2.761 0 5-2.239 5-5 0-2.762-2.238-5-5-5zm-42-70h22c2.761 0 5-2.239 5-5 0-2.762-2.239-5-5-5h-22c-2.761 0-5 2.238-5 5 0 2.761 2.239 5 5 5zm22 90h-22c-2.761 0-5 2.238-5 5 0 2.761 2.239 5 5 5h22c2.761 0 5-2.239 5-5 0-2.762-2.238-5-5-5z" fill="#a7d0fc"/><path d="m234.446 122.541c2.929 2.929 2.928 7.678 0 10.606-5.361 5.36-12.403 8.041-19.445 8.041s-14.084-2.681-19.445-8.041c-2.929-2.929-2.929-7.678 0-10.606 2.93-2.93 7.677-2.929 10.607-.001 4.874 4.873 12.804 4.873 17.678 0 2.927-2.929 7.676-2.928 10.605.001zm82 0c-2.929-2.929-7.678-2.93-10.607-.001-4.874 4.873-12.804 4.873-17.678 0-2.93-2.928-7.677-2.929-10.607.001-2.929 2.929-2.928 7.678 0 10.606 5.361 5.36 12.403 8.041 19.445 8.041s14.084-2.681 19.445-8.041c2.93-2.929 2.931-7.678.002-10.606z" fill="#f87b67"/><path d="m259.105 37.725c0 18.155-14.718 32.873-32.873 32.873-9.932 0-18.835-4.405-24.863-11.367-4.349 6.013-11.423 9.925-19.411 9.925-13.223 0-23.942-10.719-23.942-23.941 0-13.223 10.719-23.941 23.942-23.941 5.101 0 9.83 1.596 13.714 4.315 4.829-12.148 16.691-20.736 30.56-20.736 18.155-.002 32.873 14.716 32.873 32.872z" fill="#2b3894"/><path d="m386 97.5v61.891c-34.637-8.182-62.135-34.837-71.522-68.992-23.602-.964-46.92-10.456-64.939-28.475l-35.858-35.094c-12.426-13.447-15.975-23.403-13.995-23.9 7.621-1.914 15.599-2.93 23.814-2.93 11.396 0 22.335 1.955 32.5 5.548 10.165-3.593 21.104-5.548 32.5-5.548 53.848 0 97.5 43.652 97.5 97.5z" fill="#3342ae"/></g></svg>